<?xml version="1.0" encoding="UTF-8"?>
<svg width="567.1" height="675.13" version="1.1" viewBox="0 0 43.725 52.054" xmlns="http://www.w3.org/2000/svg">
 <path d="m-23.95-133.35h192.76v192.76h-192.76z" clip-rule="evenodd" fill="#fff" fill-opacity="0" fill-rule="evenodd"/>
 <g transform="matrix(.28961 0 0 .28961 -6.06 -1.8)">
  <path d="m26.062 8.504h142.74v138.15c-0.668 20.277-18.197 24.408-47.02 31.199-7.592 1.791-15.996 3.771-24.941 6.246l-0.561 0.154-0.561-0.154-0.038-0.01c-8.919-2.463-17.301-4.438-24.876-6.219-28.905-6.805-46.42-10.928-46.858-31.242v-138.12zm138.52 4.221h-136.41v133.82c0.367 17.043 16.678 20.883 43.594 27.219 7.384 1.738 15.541 3.658 24.518 6.123 8.984-2.473 17.152-4.396 24.547-6.139 26.857-6.33 43.191-10.18 43.754-27.229v-133.79z" stroke-width="3.4529"/>
  <path transform="scale(.077102)" d="m1107.6 2294.5c-72.64-18.251-192.69-47.952-266.79-66.001-74.093-18.049-163.24-42.139-198.11-53.533-153.8-50.258-234.61-111.67-261.49-198.71-10.401-33.675-10.576-48.887-10.576-921.21v-886.97h1759.2v884.33c0 865.84-0.2182 885.04-10.44 918.13-21.146 68.464-65.589 115.37-149.14 157.41-74.93 37.699-159.76 63.361-410.97 124.33-123.49 29.97-242.31 59.446-264.04 65.502-21.734 6.056-43.13 10.763-47.546 10.461-4.4168-0.3027-67.463-15.483-140.1-33.734z" fill="#fff" stroke="#fff" stroke-width="55.247" style="paint-order:stroke fill markers"/>
  <g clip-rule="evenodd" fill-rule="evenodd" stroke-width="3.4529">
   <path d="m34.384 53.965h58.422v47.387h-58.422z" fill="#ee2c27"/>
   <path d="m99.68 53.965h58.422v47.387h-58.422zm-65.296 53.945h58.422v65.172c-33.064-9.846-56.807-9.846-58.422-26.594z"/>
   <path d="m158.1 107.91h-58.422v65.172c32.842-9.846 56.328-9.846 58.422-26.594z" fill="#ee2c27"/>
   <path d="m39.99 44.854-5.196-23.518h5.15l3.018 15.039 2.979-15.039h4.073l-5.032 23.518zm13.888 0v-23.451h4.986v23.451zm10.025 0v-23.518h4.615v9.705l4.42-9.705h4.499l-4.122 8.617 5.08 14.901h-5.457l-2.735-8.888-1.685 3.424v5.463h-4.615zm20.295 0v-17.806h-3.371v-5.712h11.378v5.712h-3.276v17.806zm16.626-11.627c0 4.423 0.812 6.635 2.434 6.635 1.609 0 2.416-2.234 2.416-6.698 0-2.07-0.205-3.722-0.613-4.953-0.406-1.234-1.012-1.852-1.803-1.852-0.699 0-1.283 0.52-1.744 1.554-0.459 1.04-0.689 2.812-0.689 5.317v-3e-3zm-5.273 0c0-1.875 0.195-3.558 0.581-5.042 0.39-1.483 0.917-2.767 1.573-3.842 1.357-2.136 3.209-3.247 5.553-3.317 1.119 0 2.154 0.275 3.096 0.821 0.943 0.551 1.76 1.351 2.443 2.398 0.688 1.048 1.217 2.328 1.588 3.828 0.371 1.506 0.561 3.207 0.561 5.09 0 1.981-0.213 3.736-0.637 5.263-0.422 1.528-0.998 2.799-1.721 3.793-0.725 1-1.547 1.75-2.461 2.239-0.92 0.488-1.875 0.737-2.867 0.737-1.35-0.027-2.615-0.493-3.787-1.39-1.174-0.901-2.123-2.256-2.841-4.06-0.718-1.803-1.08-3.979-1.08-6.516v-2e-3zm19.601-11.891h8.498c1.197 0 2.234 0.293 3.1 0.879 0.867 0.586 1.529 1.413 1.98 2.47 0.449 1.057 0.695 2.292 0.73 3.695 0 0.853-0.102 1.697-0.303 2.523a6.993 6.993 0 0 1-0.955 2.234c-0.436 0.662-0.979 1.164-1.627 1.497l2.93 10.22h-5.484l-2.438-9.021h-1.445v9.021h-4.986zm4.987 5.024v4.481h2.361c0.572 0 1.014-0.213 1.32-0.64 0.311-0.426 0.465-0.959 0.465-1.586 0-0.604-0.164-1.137-0.49-1.581-0.324-0.449-0.775-0.675-1.342-0.675h-2.314zm13.554 18.494v-23.451h4.984v23.451zm8.959 0 5.084-23.553h5.152l5.035 23.553h-5.035l-0.961-4.615h-4.289l-0.916 4.615zm8.453-9.74-1.289-6.733-1.309 6.733z"/>
  </g>
 </g>
</svg>
